<svg width="709" height="742" viewBox="0 0 709 742" fill="none" xmlns="http://www.w3.org/2000/svg">
<ellipse cx="353.597" cy="286.238" rx="206.347" ry="205.89" fill="#0C1820"/>
<mask id="mask0_5284_111281" style="mask-type:alpha" maskUnits="userSpaceOnUse" x="147" y="80" width="413" height="413">
<circle cx="353.419" cy="286.172" r="205.981" fill="#15192D"/>
</mask>
<g mask="url(#mask0_5284_111281)">
<path d="M647.647 453.118H306.245H205.613C250.754 393.761 348.424 271.587 377.985 257.75C414.936 240.454 457.783 248.513 498.271 204.486C530.662 169.265 611.351 169.763 647.647 174.415V453.118Z" fill="#32713E"/>
<path d="M480.779 456.578C414.477 388.311 269.374 252.72 219.372 256.494C205.483 239.132 169.842 201.186 138.395 188.292C106.947 175.399 80.479 205.195 71.1758 221.705V456.578H480.779Z" fill="#46A758"/>
</g>
<path d="M532.27 458.345H440.11H412.945C425.131 439.569 451.496 400.922 459.476 396.545C469.451 391.074 478.224 372.52 494.334 372.52C510.543 372.52 507.125 389.106 516.923 390.577C530.201 379.697 545.202 376.938 560.894 390.577C571.856 400.105 578.574 418.414 590.553 426.49C613.142 426.49 630.244 441.093 623.143 458.345H532.27Z" fill="#529E61"/>
<path d="M183.14 458.346H275.3H302.465C290.279 445.762 263.914 419.86 255.934 416.927C245.959 413.26 237.186 400.824 221.076 400.824C204.867 400.824 208.285 411.941 198.487 412.927C185.21 405.634 170.208 403.786 154.516 412.927C143.554 419.312 136.836 431.583 124.858 436.996C102.269 436.996 85.166 446.783 92.2675 458.346H183.14Z" fill="#529E61"/>
<rect x="465.061" y="287.744" width="23.9078" height="168.637" fill="#FAF6EB"/>
<path d="M488.969 287.744L520.094 304.555V456.381H488.969V287.744Z" fill="#113757"/>
<circle cx="353.142" cy="110.021" r="110.021" fill="#FFB224"/>
<ellipse cx="353.618" cy="320.961" rx="120.483" ry="45.7954" fill="#156AB1"/>
<ellipse cx="353.618" cy="326.465" rx="120.483" ry="45.7954" fill="#1B5E96"/>
<ellipse cx="353.618" cy="333.54" rx="120.483" ry="45.7954" fill="#156AB1"/>
<path fill-rule="evenodd" clip-rule="evenodd" d="M454.834 342.974V455.595H251.998V342.974V342.384H252.011C252.89 322.575 297.954 306.613 353.416 306.613C408.878 306.613 453.942 322.575 454.821 342.384H454.834V342.974Z" fill="#113757"/>
<path d="M405.64 455.606V313.172L346.293 362.619V455.606H405.64Z" fill="#6984AE"/>
<path d="M252.25 455.606V339.954C258.353 324.835 278.631 315.41 315.25 309.52V455.606H252.25Z" fill="#7D99C5"/>
<mask id="mask1_5284_111281" style="mask-type:alpha" maskUnits="userSpaceOnUse" x="251" y="306" width="204" height="150">
<path fill-rule="evenodd" clip-rule="evenodd" d="M454.832 342.974V455.596H251.996V342.974V342.385H252.009C252.887 322.575 297.951 306.613 353.414 306.613C408.877 306.613 453.942 322.575 454.819 342.385H454.832V342.974Z" fill="#113757"/>
</mask>
<g mask="url(#mask1_5284_111281)">
<rect x="424.967" y="315.654" width="3.14475" height="140.727" fill="#3F95DC"/>
<rect x="422.605" y="315.654" width="3.14475" height="140.727" fill="#2C689A"/>
<rect x="448.553" y="315.654" width="3.14475" height="140.727" fill="#3F95DC"/>
<rect x="446.191" y="315.654" width="3.14475" height="140.727" fill="#2C689A"/>
</g>
<mask id="mask2_5284_111281" style="mask-type:alpha" maskUnits="userSpaceOnUse" x="252" y="309" width="63" height="147">
<path d="M252.003 455.594V339.828C258.096 324.694 278.341 315.26 314.898 309.363V455.594H252.003Z" fill="#7D99C5"/>
</mask>
<g mask="url(#mask2_5284_111281)">
<rect x="312.145" y="309.363" width="3.14475" height="146.231" fill="#3F95DC"/>
<rect x="286.201" y="312.508" width="3.14475" height="143.086" fill="#3F95DC"/>
<rect x="288.168" y="312.508" width="3.14475" height="143.086" fill="#2C689A"/>
<rect x="263.402" y="318.799" width="3.14475" height="136.797" fill="#3F95DC"/>
<rect x="265.764" y="318.799" width="3.14475" height="136.797" fill="#2C689A"/>
</g>
<rect x="178.1" y="351.031" width="17.1446" height="95.1286" fill="#FAF6EB"/>
<path d="M195.244 351.031L217.564 360.514V446.16H195.244V351.031Z" fill="#113757"/>
<rect x="200.746" y="358.895" width="17.1446" height="95.1286" fill="#FAF6EB"/>
<path d="M217.895 358.895L240.215 368.378V454.023H217.895V358.895Z" fill="#113757"/>
<rect x="128.176" y="440.639" width="123.431" height="13.2533" fill="#113757"/>
<rect x="128.176" y="438.016" width="123.431" height="2.62305" fill="#FAF6EB"/>
<rect x="128.176" y="453.893" width="123.431" height="2.62305" fill="#FAF6EB"/>
<rect x="231.529" y="438.016" width="1.71116" height="18.4994" fill="#FAF6EB"/>
<rect x="218.525" y="438.016" width="1.71116" height="18.4994" fill="#FAF6EB"/>
<rect x="205.52" y="438.016" width="1.71116" height="18.4994" fill="#FAF6EB"/>
<rect x="192.516" y="438.016" width="1.71116" height="18.4994" fill="#FAF6EB"/>
<rect x="179.51" y="438.016" width="1.71116" height="18.4994" fill="#FAF6EB"/>
<rect x="166.506" y="438.016" width="1.71116" height="18.4994" fill="#FAF6EB"/>
<rect x="153.502" y="438.016" width="1.71116" height="18.4994" fill="#FAF6EB"/>
<rect x="140.496" y="438.078" width="1.71116" height="18.4994" fill="#FAF6EB"/>
<rect x="474.85" y="215.773" width="72.6824" height="17.9969" rx="8.99844" fill="#FAF6EB" stroke="#113757" stroke-width="4"/>
<rect x="485.802" y="224.12" width="51.1049" height="1.62754" rx="0.813772" fill="#113757" stroke="#113757" stroke-width="1.62754"/>
<rect x="106.914" y="259.014" width="72.6824" height="17.9969" rx="8.99844" fill="#FAF6EB" stroke="#113757" stroke-width="4"/>
<rect x="117.867" y="267.361" width="51.1049" height="1.62754" rx="0.813772" fill="#113757" stroke="#113757" stroke-width="1.62754"/>
<rect x="531.814" y="221.309" width="39.806" height="17.9969" rx="8.99844" fill="#FAF6EB" stroke="#113757" stroke-width="4"/>
<rect x="538.87" y="229.656" width="25.8633" height="1.62754" rx="0.813772" fill="#113757" stroke="#113757" stroke-width="1.62754"/>
<rect x="152.514" y="244.863" width="39.806" height="17.9969" rx="8.99844" fill="#FAF6EB" stroke="#113757" stroke-width="4"/>
<rect x="159.57" y="253.21" width="25.8633" height="1.62754" rx="0.813772" fill="#113757" stroke="#113757" stroke-width="1.62754"/>
<path d="M178.676 471.614C146.876 465.454 45.061 463.61 110.1 455.605H464.18C531.149 455.605 645.738 455.605 618.622 460.45C582.585 466.889 482.455 473.403 499.744 481.724C509.372 486.358 624.754 491.212 622.355 496.047C617.443 505.947 586.206 507.404 520.965 512.056C455.725 516.707 495.197 524.293 531.379 528.064C573.822 532.487 603.689 528.049 618.622 538.806C633.555 549.564 534.687 542.482 548.081 550.181C558.796 556.34 585.593 563.18 601.724 563.715C601.724 563.715 618.622 563.715 624.713 570.612C630.805 577.51 142.521 578.406 105.974 570.612C69.4262 562.819 180.821 544.068 164.922 538.806C145.047 532.23 85.378 525.146 138.788 517.743C184.374 511.425 209.704 507.608 175.139 498.786C140.575 489.964 72.5269 497.764 102.437 481.724C115.012 474.98 218.425 479.313 178.676 471.614Z" fill="#0C1820"/>
<path d="M696 744.125L408.864 457.953H309.456L13 744.125H696Z" fill="#FEF3DD" stroke="#15192D" stroke-width="10"/>
<path d="M96.1387 666.098L618.167 666.098" stroke="#15192D" stroke-width="10"/>
<path d="M162.374 599.285L550.161 599.285" stroke="#15192D" stroke-width="10"/>
<path d="M233.723 533.141L485.106 533.141" stroke="#15192D" stroke-width="10"/>
<path d="M273.227 492.99H442.846" stroke="#15192D" stroke-width="10"/>
<path d="M257.972 419.68C255.992 414.571 248.764 414.571 246.784 419.68L239.363 438.82C237.838 442.752 240.739 446.989 244.957 446.989H259.799C264.017 446.989 266.918 442.752 265.393 438.82L257.972 419.68Z" fill="#46A758" stroke="#0C1820" stroke-width="4"/>
<path d="M252.046 457.888V446.237M252.046 429.758V440.078M252.046 440.078L258.538 434.418M252.046 440.078V446.237M252.046 446.237L246.387 440.078" stroke="#0C1820" stroke-width="4"/>
<path d="M455.304 419.68C453.324 414.571 446.096 414.571 444.116 419.68L436.695 438.82C435.17 442.752 438.072 446.989 442.289 446.989H457.131C461.349 446.989 464.25 442.752 462.725 438.82L455.304 419.68Z" fill="#46A758" stroke="#0C1820" stroke-width="4"/>
<path d="M449.378 457.888V446.237M449.378 429.758V440.078M449.378 440.078L455.87 434.418M449.378 440.078V446.237M449.378 446.237L443.719 440.078" stroke="#0C1820" stroke-width="4"/>
<path d="M472.994 419.68C471.013 414.571 463.786 414.571 461.805 419.68L454.384 438.82C452.86 442.752 455.761 446.989 459.979 446.989H474.82C479.038 446.989 481.939 442.752 480.415 438.82L472.994 419.68Z" fill="#46A758" stroke="#0C1820" stroke-width="4"/>
<path d="M467.068 457.888V446.237M467.068 429.758V440.078M467.068 440.078L473.559 434.418M467.068 440.078V446.237M467.068 446.237L461.408 440.078" stroke="#0C1820" stroke-width="4"/>
</svg>
