<svg id="e5pfQYM9P3U1" xmlns="http://www.w3.org/2000/svg" xmlns:xlink="http://www.w3.org/1999/xlink" viewBox="0 0 1371 1271" shape-rendering="geometricPrecision" text-rendering="geometricPrecision"><style><![CDATA[#e5pfQYM9P3U2 {animation: e5pfQYM9P3U2_c_o 3000ms linear infinite normal forwards}@keyframes e5pfQYM9P3U2_c_o { 0% {opacity: 0} 30% {opacity: 0} 50% {opacity: 1} 70% {opacity: 0.02} 100% {opacity: 0.02}} #e5pfQYM9P3U3 {animation: e5pfQYM9P3U3_c_o 3000ms linear infinite normal forwards}@keyframes e5pfQYM9P3U3_c_o { 0% {opacity: 0} 56.666667% {opacity: 0} 76.666667% {opacity: 1} 96.666667% {opacity: 0} 100% {opacity: 0}} #e5pfQYM9P3U4 {animation: e5pfQYM9P3U4_c_o 3000ms linear infinite normal forwards}@keyframes e5pfQYM9P3U4_c_o { 0% {opacity: 0} 10% {opacity: 0} 30% {opacity: 1} 50% {opacity: 0} 100% {opacity: 0}} #e5pfQYM9P3U5 {animation: e5pfQYM9P3U5_c_o 3000ms linear infinite normal forwards}@keyframes e5pfQYM9P3U5_c_o { 0% {opacity: 1} 13.333333% {opacity: 0} 83.333333% {opacity: 0} 100% {opacity: 1}}]]></style><path id="e5pfQYM9P3U2" d="M623.658,325.043h-294.612v293.011h294.612v-293.011Z" transform="matrix(2.132381 0 0 2.132384 16.280607-42.741846)" opacity="0" fill="#f2cf63"/><path id="e5pfQYM9P3U3" d="M328.322,293.499h294.612v-276.9992h-294.612v276.9992Z" transform="matrix(2.132381 0 0 2.074619 17.824447-5.191054)" opacity="0" fill="#6d94ce"/><path id="e5pfQYM9P3U4" d="M0.009613,293.499h294.612387v-276.9992h-294.612387v276.9992Z" transform="matrix(2.158739 0 0 2.074619 26.2998-5.191041)" opacity="0" fill="#fe1d5b"/><g id="e5pfQYM9P3U5" transform="matrix(2.132383 0 0 2.132384 34.022207-42.74186)"><path d="M294.642,325.043h-76.055v293.011h76.055v-293.011Z" fill="#1a84dd"/><path d="M184.949,325.043h-76.054v293.011h76.054v-293.011Z" fill="#1a84dd"/><path d="M76.1187,325.043h-76.054735v293.011h76.054735v-293.011Z" fill="#1a84dd"/></g></svg>