<svg width="25" height="25" viewBox="0 0 25 25" fill="none" xmlns="http://www.w3.org/2000/svg">
<path d="M19.311 3.36052C19.311 3.36052 19.7665 4.04155 19.046 4.73969C18.5246 5.24143 17.6762 5.54009 16.6736 5.54009C16.0242 5.53409 15.3803 5.42162 14.7676 5.20719C13.0144 4.60986 12.2486 3.38049 12.2128 2.33232C12.177 1.29366 12.6367 0.625 12.6367 0.625C12.6367 0.625 7.9014 0.750552 6.02646 4.04202C4.06223 7.48996 7.2239 10.2645 5.1193 13.2497C4.48 14.1566 3.52558 14.4234 2.70723 14.4234C2.47292 14.4231 2.23912 14.4017 2.00872 14.3592C1.35223 14.2379 0.929688 13.7067 0.929688 13.7067C1.66448 21.139 7.07971 23.9687 11.6403 24.5204C12.2106 24.5896 12.7846 24.6245 13.3591 24.625C13.7654 24.624 14.1711 24.593 14.5728 24.5323C14.8026 24.498 15.0337 24.4546 15.2661 24.402C19.6509 23.407 24.3624 19.1478 24.3624 12.9648C24.3634 5.86634 19.311 3.36052 19.311 3.36052ZM16.5041 16.3038C15.6237 17.3025 14.5317 17.8376 13.8032 18.0031C13.733 18.0188 13.6642 18.0321 13.5998 18.0416C13.5198 18.0544 13.4391 18.0612 13.3582 18.062C13.0495 18.0616 12.7412 18.0427 12.4348 18.0054C11.9096 17.9417 11.065 17.7843 10.2333 17.3962C10.3288 17.2742 10.4215 17.1492 10.5116 17.0215C11.6883 15.369 12.362 13.4137 12.452 11.3897C13.3668 11.7906 14.812 12.5106 15.0947 13.1674C15.0947 13.1674 15.7287 12.5016 17.1095 12.2272C17.1983 12.2096 17.4404 12.1768 17.7302 12.1406C17.7607 12.4141 17.7759 12.6891 17.7755 12.9643C17.7746 14.2218 17.3468 15.3455 16.5041 16.3038Z" fill="#F1A10D"/>
</svg>
