<svg width="512" height="512" viewBox="0 0 512 512" fill="none" xmlns="http://www.w3.org/2000/svg">
<rect width="512" height="512" fill="#8697FF"/>
<path d="M88.3599 373.398H90.4249C92.5829 373.398 94.2387 372.907 95.3921 371.927C96.5455 370.946 97.1223 369.537 97.1223 367.698C97.1223 365.86 96.5455 364.45 95.3921 363.469C94.2387 362.489 92.5829 361.999 90.4249 361.999H88.3599V373.398ZM112.415 398.954H98.7966L88.3599 381.181V398.954H77.4209V352.744H94.4433C96.7874 352.744 98.8338 353.132 100.583 353.909C102.331 354.644 103.764 355.666 104.88 356.973C106.033 358.281 106.889 359.792 107.447 361.508C108.043 363.224 108.34 365.063 108.34 367.024C108.34 370.538 107.559 373.398 105.996 375.604C104.471 377.769 102.201 379.24 99.1873 380.017L112.415 398.954Z" fill="white"/>
<path d="M121.415 383.142C121.415 384.164 121.582 385.124 121.917 386.023C122.252 386.881 122.699 387.637 123.257 388.29C123.852 388.944 124.54 389.455 125.322 389.822C126.14 390.19 127.015 390.374 127.945 390.374C128.838 390.374 129.675 390.19 130.456 389.822C131.275 389.455 131.963 388.944 132.521 388.29C133.117 387.637 133.582 386.881 133.917 386.023C134.289 385.165 134.475 384.245 134.475 383.265C134.475 382.284 134.289 381.365 133.917 380.507C133.582 379.608 133.117 378.832 132.521 378.178C131.963 377.524 131.275 377.014 130.456 376.646C129.675 376.278 128.838 376.094 127.945 376.094C127.015 376.094 126.14 376.278 125.322 376.646C124.54 377.014 123.852 377.524 123.257 378.178C122.699 378.832 122.252 379.588 121.917 380.446C121.582 381.263 121.415 382.162 121.415 383.142ZM134.14 367.514H144.298V398.954H134.14V395.461C131.982 398.443 129.061 399.935 125.378 399.935C123.294 399.935 121.378 399.526 119.629 398.709C117.88 397.851 116.355 396.666 115.052 395.154C113.75 393.643 112.727 391.865 111.983 389.822C111.276 387.78 110.922 385.553 110.922 383.142C110.922 380.895 111.276 378.771 111.983 376.768C112.69 374.726 113.676 372.948 114.941 371.437C116.206 369.925 117.713 368.74 119.462 367.882C121.21 366.983 123.145 366.534 125.266 366.534C128.838 366.534 131.796 367.902 134.14 370.64V367.514Z" fill="white"/>
<path d="M170.65 383.326C170.65 382.346 170.483 381.426 170.148 380.568C169.813 379.669 169.348 378.893 168.752 378.239C168.157 377.586 167.469 377.075 166.687 376.707C165.906 376.299 165.05 376.094 164.12 376.094C163.227 376.094 162.39 376.278 161.609 376.646C160.827 377.014 160.139 377.524 159.544 378.178C158.985 378.832 158.52 379.608 158.148 380.507C157.813 381.365 157.646 382.284 157.646 383.265C157.646 384.245 157.813 385.165 158.148 386.023C158.483 386.881 158.948 387.637 159.544 388.29C160.139 388.903 160.827 389.414 161.609 389.822C162.427 390.19 163.283 390.374 164.176 390.374C165.069 390.374 165.906 390.19 166.687 389.822C167.469 389.455 168.139 388.944 168.697 388.29C169.292 387.637 169.757 386.881 170.092 386.023C170.464 385.165 170.65 384.266 170.65 383.326ZM157.925 348.087V370.64C160.306 367.902 163.283 366.534 166.855 366.534C168.976 366.534 170.91 366.983 172.659 367.882C174.445 368.74 175.952 369.925 177.18 371.437C178.445 372.907 179.431 374.664 180.138 376.707C180.845 378.709 181.198 380.854 181.198 383.142C181.198 385.471 180.826 387.657 180.082 389.7C179.375 391.743 178.371 393.52 177.068 395.032C175.766 396.543 174.222 397.749 172.436 398.648C170.687 399.506 168.79 399.935 166.743 399.935C163.022 399.935 160.083 398.443 157.925 395.461V398.954H147.823V348.087H157.925Z" fill="white"/>
<path d="M206.435 383.326C206.435 382.346 206.267 381.426 205.932 380.568C205.597 379.669 205.132 378.893 204.537 378.239C203.942 377.586 203.253 377.075 202.472 376.707C201.691 376.299 200.835 376.094 199.905 376.094C199.012 376.094 198.175 376.278 197.393 376.646C196.612 377.014 195.923 377.524 195.328 378.178C194.77 378.832 194.305 379.608 193.933 380.507C193.598 381.365 193.431 382.284 193.431 383.265C193.431 384.245 193.598 385.165 193.933 386.023C194.268 386.881 194.733 387.637 195.328 388.29C195.923 388.903 196.612 389.414 197.393 389.822C198.212 390.19 199.068 390.374 199.96 390.374C200.853 390.374 201.691 390.19 202.472 389.822C203.253 389.455 203.923 388.944 204.481 388.29C205.077 387.637 205.542 386.881 205.876 386.023C206.249 385.165 206.435 384.266 206.435 383.326ZM193.71 348.087V370.64C196.091 367.902 199.068 366.534 202.639 366.534C204.76 366.534 206.695 366.983 208.444 367.882C210.23 368.74 211.737 369.925 212.964 371.437C214.23 372.907 215.216 374.664 215.922 376.707C216.629 378.709 216.983 380.854 216.983 383.142C216.983 385.471 216.611 387.657 215.867 389.7C215.16 391.743 214.155 393.52 212.853 395.032C211.551 396.543 210.007 397.749 208.221 398.648C206.472 399.506 204.574 399.935 202.528 399.935C198.807 399.935 195.868 398.443 193.71 395.461V398.954H183.608V348.087H193.71Z" fill="white"/>
<path d="M228.247 394.664L214.406 367.514H226.126L233.772 383.633L241.195 367.514H252.804L229.81 414.643H218.48L228.247 394.664Z" fill="white"/>
<path d="M270.542 352.744L277.797 382.591L286.727 352.744H295.434L304.363 382.591L311.619 352.744H323.06L310.503 398.954H299.34L291.08 372.172L282.82 398.954H271.658L259.1 352.744H270.542Z" fill="white"/>
<path d="M330.667 383.142C330.667 384.164 330.835 385.124 331.17 386.023C331.505 386.881 331.951 387.637 332.509 388.29C333.104 388.944 333.793 389.455 334.574 389.822C335.393 390.19 336.267 390.374 337.197 390.374C338.09 390.374 338.927 390.19 339.709 389.822C340.527 389.455 341.216 388.944 341.774 388.29C342.369 387.637 342.834 386.881 343.169 386.023C343.541 385.165 343.727 384.245 343.727 383.265C343.727 382.284 343.541 381.365 343.169 380.507C342.834 379.608 342.369 378.832 341.774 378.178C341.216 377.524 340.527 377.014 339.709 376.646C338.927 376.278 338.09 376.094 337.197 376.094C336.267 376.094 335.393 376.278 334.574 376.646C333.793 377.014 333.104 377.524 332.509 378.178C331.951 378.832 331.505 379.588 331.17 380.446C330.835 381.263 330.667 382.162 330.667 383.142ZM343.392 367.514H353.55V398.954H343.392V395.461C341.234 398.443 338.314 399.935 334.63 399.935C332.546 399.935 330.63 399.526 328.881 398.709C327.133 397.851 325.607 396.666 324.305 395.154C323.003 393.643 321.979 391.865 321.235 389.822C320.528 387.78 320.175 385.553 320.175 383.142C320.175 380.895 320.528 378.771 321.235 376.768C321.942 374.726 322.928 372.948 324.193 371.437C325.458 369.925 326.965 368.74 328.714 367.882C330.463 366.983 332.398 366.534 334.518 366.534C338.09 366.534 341.048 367.902 343.392 370.64V367.514Z" fill="white"/>
<path d="M367.178 348.087V398.954H357.076V348.087H367.178Z" fill="white"/>
<path d="M380.834 348.087V398.954H370.732V348.087H380.834Z" fill="white"/>
<path d="M405.318 378.668C404.983 377.116 404.294 375.87 403.253 374.93C402.211 373.99 400.946 373.52 399.457 373.52C397.895 373.52 396.611 373.97 395.606 374.869C394.639 375.767 394.025 377.034 393.765 378.668H405.318ZM393.486 385.103C393.486 389.884 395.532 392.274 399.625 392.274C401.82 392.274 403.476 391.293 404.592 389.332H414.359C412.387 396.523 407.457 400.118 399.569 400.118C397.15 400.118 394.937 399.73 392.927 398.954C390.918 398.137 389.188 396.993 387.737 395.522C386.323 394.051 385.225 392.294 384.444 390.251C383.663 388.209 383.272 385.921 383.272 383.387C383.272 380.773 383.644 378.423 384.388 376.339C385.132 374.215 386.193 372.417 387.57 370.946C388.946 369.475 390.602 368.352 392.537 367.576C394.509 366.758 396.723 366.35 399.178 366.35C401.597 366.35 403.773 366.758 405.708 367.576C407.643 368.352 409.28 369.496 410.62 371.008C411.959 372.519 412.982 374.378 413.689 376.585C414.396 378.75 414.75 381.202 414.75 383.939V385.103H393.486Z" fill="white"/>
<path d="M428.831 376.768V398.954H418.729V376.768H415.38V367.514H418.729V358.076H428.831V367.514H434.579V376.768H428.831Z" fill="white"/>
<path d="M400.96 222.809C412.465 197.022 355.591 124.978 301.257 94.9627C267.009 71.7103 231.322 74.9048 224.094 85.1143C208.233 107.52 276.617 126.506 322.352 148.66C312.521 152.945 303.256 160.633 297.808 170.465C280.758 151.788 243.335 135.705 199.424 148.66C169.832 157.391 145.24 177.973 135.735 209.061C133.425 208.031 130.868 207.459 128.178 207.459C117.891 207.459 109.551 215.827 109.551 226.149C109.551 236.471 117.891 244.839 128.178 244.839C130.085 244.839 136.047 243.555 136.047 243.555L231.322 244.248C193.22 304.898 163.108 313.764 163.108 324.271C163.108 334.778 191.919 331.931 202.738 328.014C254.525 309.265 310.147 250.832 319.692 234.011C359.774 239.029 393.459 239.623 400.96 222.809Z" fill="url(#paint0_linear_1759_700)"/>
<path fill-rule="evenodd" clip-rule="evenodd" d="M322.347 148.664C322.35 148.665 322.352 148.666 322.355 148.667C324.475 147.829 324.132 144.688 323.55 142.221C322.212 136.55 299.128 113.679 277.451 103.435C247.915 89.4763 226.165 90.195 222.949 96.6277C228.965 109.001 256.859 120.618 285.992 132.752C298.421 137.928 311.076 143.198 322.353 148.661C322.351 148.662 322.349 148.663 322.347 148.664Z" fill="url(#paint1_linear_1759_700)"/>
<path fill-rule="evenodd" clip-rule="evenodd" d="M284.864 273.196C278.89 270.905 272.143 268.803 264.471 266.897C272.651 252.211 274.367 230.47 266.642 216.724C255.801 197.433 242.191 187.165 210.566 187.165C193.172 187.165 146.34 193.044 145.509 232.269C145.422 236.385 145.507 240.157 145.804 243.626L231.322 244.248C219.793 262.599 208.995 276.21 199.542 286.559C210.892 289.477 220.258 291.927 228.857 294.176C237.016 296.311 244.485 298.264 252.301 300.265C264.092 291.646 275.178 282.246 284.864 273.196Z" fill="url(#paint2_linear_1759_700)"/>
<path d="M134.594 239.596C138.087 269.394 154.965 281.072 189.454 284.528C223.942 287.983 243.726 285.665 270.064 288.069C292.061 290.078 311.702 301.325 318.989 297.438C325.546 293.94 321.877 281.302 313.103 273.194C301.729 262.684 285.987 255.377 258.288 252.783C263.808 237.618 262.261 216.355 253.688 204.787C241.292 188.06 218.412 180.498 189.454 183.802C159.199 187.254 130.209 202.199 134.594 239.596Z" fill="url(#paint3_linear_1759_700)"/>
<defs>
<linearGradient id="paint0_linear_1759_700" x1="195.978" y1="199.973" x2="398.584" y2="257.235" gradientUnits="userSpaceOnUse">
<stop stop-color="white"/>
<stop offset="1" stop-color="white"/>
</linearGradient>
<linearGradient id="paint1_linear_1759_700" x1="364.383" y1="196.111" x2="217.774" y2="49.6371" gradientUnits="userSpaceOnUse">
<stop stop-color="#8697FF"/>
<stop offset="1" stop-color="#8697FF" stop-opacity="0"/>
</linearGradient>
<linearGradient id="paint2_linear_1759_700" x1="288.929" y1="278.315" x2="148.334" y2="197.754" gradientUnits="userSpaceOnUse">
<stop stop-color="#8697FF"/>
<stop offset="1" stop-color="#8697FF" stop-opacity="0"/>
</linearGradient>
<linearGradient id="paint3_linear_1759_700" x1="208.067" y1="198.457" x2="303.336" y2="319.099" gradientUnits="userSpaceOnUse">
<stop stop-color="white"/>
<stop offset="0.983895" stop-color="#D1D8FF"/>
</linearGradient>
</defs>
</svg>
