<svg width="192" height="192" viewBox="0 0 192 192" fill="none" xmlns="http://www.w3.org/2000/svg">
<path d="M92.4971 55.3352L69.5645 72.3266C68.9177 72.8051 68.0044 72.6696 67.5237 72.0228L39.7227 34.496L65.0261 15.75L92.8074 53.2485C93.2991 53.9106 93.1592 54.8436 92.4971 55.3352Z" fill="#129AC6"/>
<path d="M22.2047 107.994C31.3268 107.994 38.7218 100.599 38.7218 91.4766C38.7218 82.3545 31.3268 74.9595 22.2047 74.9595C13.0825 74.9595 5.6875 82.3545 5.6875 91.4766C5.6875 100.599 13.0825 107.994 22.2047 107.994Z" fill="#513E99"/>
<path d="M182.426 124.52C167.478 124.52 155.359 136.638 155.359 151.586H182.426V124.52Z" fill="#4FBF9F"/>
<path d="M91.3919 133.321C75.5346 133.321 62.6797 146.176 62.6797 162.033H120.106C120.104 146.176 107.249 133.321 91.3919 133.321Z" fill="#EB8A23"/>
<path d="M11.8809 132.851L42.658 124.843L34.761 155.83L11.8809 132.851Z" fill="#AB3593"/>
<path d="M157.399 59.7666C155.03 67.5696 147.784 73.2508 139.208 73.2508C130.631 73.2508 123.386 67.5696 121.017 59.7666H99.0742C101.773 79.5286 118.707 94.7566 139.208 94.7566C159.711 94.7566 176.645 79.5264 179.342 59.7666H157.399V59.7666Z" fill="#F16061"/>
<path d="M99.0784 74.3984C95.1605 74.3984 91.9746 77.5865 91.9746 81.5022V92.8494H106.184V81.5022C106.182 77.5865 102.994 74.3984 99.0784 74.3984ZM103.285 89.952H94.8721V81.5022C94.8721 79.1838 96.76 77.2959 99.0784 77.2959C101.397 77.2959 103.285 79.1838 103.285 81.5022V89.952Z" fill="black"/>
<path d="M169.988 99.6034C169.988 99.2253 169.852 98.8539 169.575 98.5764L152.64 81.7358V69.5211H142.012V78.5084H136.822V69.5211H125.654V78.5084H121.52V58.7355H120.72L99.0745 34.5093L77.4311 58.7355H76.6314V78.5062H72.4972V69.5189H61.3291V78.5062H56.1395V69.5189H45.5112V81.7336L28.5745 98.5742C28.297 98.8517 28.1615 99.2231 28.1615 99.6012H28.1484V138.645C28.1484 139.444 28.7974 140.093 29.5972 140.093H62.6752H64.1239H76.627H85.8044H86.3114H111.831H112.338H121.515H134.019H135.467H168.543C169.343 140.093 169.992 139.444 169.992 138.645V99.6034H169.988ZM165.06 98.1765L137.502 98.3491L151.204 84.3973L165.06 98.1765ZM99.0767 38.8598L116.835 58.7376H81.3184L99.0767 38.8598ZM46.949 84.3951L60.6518 98.3469L33.0911 98.1765L46.949 84.3951ZM42.6575 137.148V128.698C42.6575 126.38 44.5454 124.492 46.8638 124.492C49.1822 124.492 51.0701 126.38 51.0701 128.698V137.148H42.6575ZM53.9676 137.196V128.698C53.9676 124.78 50.7795 121.594 46.8638 121.594C42.9459 121.594 39.7601 124.782 39.7601 128.698V137.196H31.0502V101.061L62.6795 101.26V137.196H53.9676ZM65.577 137.196V99.2275L48.4109 81.7467V72.4185H53.2421V81.4059H64.2288V72.4185H69.5997V81.4059H76.6336V137.194H65.577V137.196ZM89.2154 137.196V118.848C89.2154 113.411 93.638 108.986 99.0767 108.986C104.515 108.986 108.938 113.411 108.938 118.848V137.194H89.2154V137.196ZM112.342 137.196H111.836V118.848C111.836 111.811 106.113 106.089 99.0767 106.089C92.0407 106.089 86.3179 111.814 86.3179 118.848V137.194H85.811H79.531V61.6329H118.625V137.194H112.342V137.196ZM132.576 137.196H121.522V81.4059H128.556V72.4185H133.927V81.4059H144.914V72.4185H149.745V81.7467L132.579 99.2275V137.196H132.576ZM147.083 137.148V128.698C147.083 126.38 148.971 124.492 151.29 124.492C153.608 124.492 155.496 126.38 155.496 128.698V137.148H147.083ZM158.393 137.196V128.698C158.393 124.78 155.205 121.594 151.29 121.594C147.372 121.594 144.186 124.782 144.186 128.698V137.196H135.476V101.26L167.101 101.061V137.194H158.393V137.196Z" fill="black"/>
<path d="M169.947 101.063H167.15V163.159H169.947V101.063Z" fill="black"/>
<path d="M79.5039 90.5176H76.707V152.616H79.5039V90.5176Z" fill="black"/>
<path d="M53.9083 134.84H51.1113V173.61H53.9083V134.84Z" fill="black"/>
<path d="M48.2618 58.853H45.4648V83.6233H48.2618V58.853Z" fill="black"/>
<path d="M136.873 51.1201H134.076V78.2263H136.873V51.1201Z" fill="black"/>
<path d="M135.49 118.978H132.693V146.082H135.49V118.978Z" fill="black"/>
<path d="M39.3704 98.2153H16.9316V101.012H39.3704V98.2153Z" fill="black"/>
<path d="M189.986 98.3052H158.215V101.102H189.986V98.3052Z" fill="black"/>
<path d="M177.882 137.346H0V140.143H177.882V137.346Z" fill="black"/>
<path d="M90.1032 24.2642L88.0117 26.1245L111.227 52.2249L113.318 50.3647L90.1032 24.2642Z" fill="black"/>
</svg>
