<svg width="19" height="19" viewBox="0 0 19 19" fill="none" xmlns="http://www.w3.org/2000/svg">
<path d="M17.375 16.375H10.375V3.25C10.375 2.55381 10.6516 1.88613 11.1438 1.39384C11.6361 0.901562 12.3038 0.625 13 0.625H17.375C17.6071 0.625 17.8296 0.717187 17.9937 0.881282C18.1578 1.04538 18.25 1.26794 18.25 1.5V15.5C18.25 15.7321 18.1578 15.9546 17.9937 16.1187C17.8296 16.2828 17.6071 16.375 17.375 16.375ZM8.625 16.375H1.625C1.39294 16.375 1.17038 16.2828 1.00628 16.1187C0.842187 15.9546 0.75 15.7321 0.75 15.5V1.5C0.75 1.26794 0.842187 1.04538 1.00628 0.881282C1.17038 0.717187 1.39294 0.625 1.625 0.625H6C6.69619 0.625 7.36387 0.901562 7.85616 1.39384C8.34844 1.88613 8.625 2.55381 8.625 3.25V16.375ZM8.625 16.375H10.375V18.125H8.625V16.375Z" fill="#70E1C8"/>
</svg>
